<svg width="0" height="0" viewBox="0 0 12 12" xmlns="http://www.w3.org/2000/svg" xmlns:xlink="http://www.w3.org/1999/xlink"><defs><path id="fa-thumbs-o-up" d="M1.714286 9C1.714286 9.234375 1.520089 9.428571 1.285714 9.428571C1.051339 9.428571 0.857143 9.234375 0.857143 9C0.857143 8.765625 1.051339 8.571429 1.285714 8.571429C1.520089 8.571429 1.714286 8.765625 1.714286 9ZM9.428571 5.142857C9.428571 5.390625 9.241071 5.993304 8.926339 6.000000C9.066964 6.160714 9.160714 6.475446 9.160714 6.689732C9.160714 7.004464 9.033482 7.272321 8.805804 7.486607C8.886161 7.627232 8.926339 7.787946 8.926339 7.948661C8.926339 8.256696 8.772321 8.638393 8.491071 8.792411C8.511161 8.912946 8.524554 9.040179 8.524554 9.167411C8.524554 9.984375 7.995536 10.285714 7.238839 10.285714L6.428571 10.285714C5.638393 10.285714 4.875000 10.051339 4.138393 9.796875C3.776786 9.669643 3.160714 9.428571 2.785714 9.428571L2.571429 9.428571L2.571429 5.142857L2.785714 5.142857C3.314732 5.142857 4.111607 3.997768 4.412946 3.609375C4.580357 3.401786 4.741071 3.194196 4.928571 3.000000C5.578125 2.316964 5.357143 1.292411 5.785714 0.857143C6.703125 0.857143 6.857143 1.359375 6.857143 2.142857C6.857143 2.933036 6.214286 3.502232 6.214286 4.285714L8.571429 4.285714C9.020089 4.285714 9.428571 4.687500 9.428571 5.142857ZM10.285714 5.136161C10.285714 4.212054 9.495536 3.428571 8.571429 3.428571L7.392857 3.428571C7.593750 3.013393 7.714286 2.611607 7.714286 2.142857C7.714286 1.694196 7.687500 1.305804 7.479911 0.897321C7.151786 0.247768 6.482143 0 5.785714 0C5.558036 0 5.343750 0.093750 5.183036 0.247768C4.513393 0.904018 4.727679 1.962054 4.325893 2.390625C4.071429 2.665179 3.837054 2.953125 3.609375 3.247768C3.408482 3.508929 2.953125 4.111607 2.691964 4.285714L0.857143 4.285714C0.381696 4.285714 0 4.667411 0 5.142857L0 9.428571C0 9.904018 0.381696 10.285714 0.857143 10.285714L2.785714 10.285714C2.973214 10.285714 3.515625 10.486607 3.709821 10.553571C4.593750 10.861607 5.477679 11.142857 6.428571 11.142857L7.051339 11.142857L7.292411 11.142857C8.531250 11.142857 9.395089 10.399554 9.381696 9.133929C9.642857 8.799107 9.783482 8.370536 9.783482 7.941964C9.783482 7.848214 9.776786 7.747768 9.763393 7.654018C9.930804 7.359375 10.017857 7.024554 10.017857 6.689732C10.017857 6.535714 9.997768 6.375000 9.957589 6.227679C10.171875 5.906250 10.285714 5.524554 10.285714 5.136161Z"/><path id="fa-hand-o-right" d="M1.714286 9C1.714286 9.234375 1.520089 9.428571 1.285714 9.428571C1.051339 9.428571 0.857143 9.234375 0.857143 9C0.857143 8.765625 1.051339 8.571429 1.285714 8.571429C1.520089 8.571429 1.714286 8.765625 1.714286 9ZM11.142857 5.142857C11.142857 5.604911 10.747768 6.000000 10.285714 6.000000L8.069196 6.000000C8.209821 6.160714 8.303571 6.475446 8.303571 6.689732C8.303571 7.004464 8.176339 7.272321 7.948661 7.486607C8.029018 7.627232 8.069196 7.787946 8.069196 7.948661C8.069196 8.256696 7.915179 8.638393 7.633929 8.792411C7.654018 8.912946 7.667411 9.040179 7.667411 9.167411C7.667411 9.970982 7.151786 10.285714 6.401786 10.285714C5.102679 10.285714 3.957589 9.428571 2.785714 9.428571L2.571429 9.428571L2.571429 5.142857L2.785714 5.142857C3.495536 5.142857 3.970982 4.540179 4.399554 4.051339C4.674107 3.743304 4.928571 3.435268 5.149554 3.080357C5.236607 2.939732 5.316964 2.792411 5.397321 2.645089C5.470982 2.491071 5.812500 1.714286 6 1.714286C6.569196 1.714286 7.071429 1.928571 7.071429 2.571429C7.071429 3.428571 6.428571 3.863839 6.428571 4.285714L10.285714 4.285714C10.734375 4.285714 11.142857 4.687500 11.142857 5.142857ZM12 5.136161C12 4.212054 11.209821 3.428571 10.285714 3.428571L7.781250 3.428571C7.881696 3.154018 7.928571 2.866071 7.928571 2.571429C7.928571 1.439732 7.064732 0.857143 6 0.857143C5.102679 0.857143 4.814732 2.002232 4.426339 2.625000C4.225446 2.939732 3.997768 3.214286 3.756696 3.488839C3.562500 3.709821 3.107143 4.285714 2.785714 4.285714L0.857143 4.285714C0.381696 4.285714 0 4.667411 0 5.142857L0 9.428571C0 9.904018 0.381696 10.285714 0.857143 10.285714L2.785714 10.285714C3.207589 10.285714 3.870536 10.533482 4.279018 10.680804C4.975446 10.935268 5.685268 11.142857 6.435268 11.142857C7.674107 11.142857 8.537946 10.399554 8.524554 9.133929C8.785714 8.799107 8.926339 8.370536 8.926339 7.941964C8.926339 7.848214 8.919643 7.747768 8.906250 7.654018C9.046875 7.406250 9.133929 7.138393 9.154018 6.857143L10.285714 6.857143C11.223214 6.857143 12 6.073661 12 5.136161Z"/></defs></svg>