<svg width="0" height="0" viewBox="0 0 12 12" xmlns="http://www.w3.org/2000/svg" xmlns:xlink="http://www.w3.org/1999/xlink"><defs><path id="fa-thumbs-o-up" d="M2.571429 9C2.571429 9.234375 2.377232 9.428571 2.142857 9.428571C1.908482 9.428571 1.714286 9.234375 1.714286 9C1.714286 8.765625 1.908482 8.571429 2.142857 8.571429C2.377232 8.571429 2.571429 8.765625 2.571429 9ZM10.285714 5.142857C10.285714 5.390625 10.098214 5.993304 9.783482 6.000000C9.924107 6.160714 10.017857 6.475446 10.017857 6.689732C10.017857 7.004464 9.890625 7.272321 9.662946 7.486607C9.743304 7.627232 9.783482 7.787946 9.783482 7.948661C9.783482 8.256696 9.629464 8.638393 9.348214 8.792411C9.368304 8.912946 9.381696 9.040179 9.381696 9.167411C9.381696 9.984375 8.852679 10.285714 8.095982 10.285714L7.285714 10.285714C6.495536 10.285714 5.732143 10.051339 4.995536 9.796875C4.633929 9.669643 4.017857 9.428571 3.642857 9.428571L3.428571 9.428571L3.428571 5.142857L3.642857 5.142857C4.171875 5.142857 4.968750 3.997768 5.270089 3.609375C5.437500 3.401786 5.598214 3.194196 5.785714 3.000000C6.435268 2.316964 6.214286 1.292411 6.642857 0.857143C7.560268 0.857143 7.714286 1.359375 7.714286 2.142857C7.714286 2.933036 7.071429 3.502232 7.071429 4.285714L9.428571 4.285714C9.877232 4.285714 10.285714 4.687500 10.285714 5.142857ZM11.142857 5.136161C11.142857 4.212054 10.352679 3.428571 9.428571 3.428571L8.250000 3.428571C8.450893 3.013393 8.571429 2.611607 8.571429 2.142857C8.571429 1.694196 8.544643 1.305804 8.337054 0.897321C8.008929 0.247768 7.339286 0.000000 6.642857 0.000000C6.415179 0.000000 6.200893 0.093750 6.040179 0.247768C5.370536 0.904018 5.584821 1.962054 5.183036 2.390625C4.928571 2.665179 4.694196 2.953125 4.466518 3.247768C4.265625 3.508929 3.810268 4.111607 3.549107 4.285714L1.714286 4.285714C1.238839 4.285714 0.857143 4.667411 0.857143 5.142857L0.857143 9.428571C0.857143 9.904018 1.238839 10.285714 1.714286 10.285714L3.642857 10.285714C3.830357 10.285714 4.372768 10.486607 4.566964 10.553571C5.450893 10.861607 6.334821 11.142857 7.285714 11.142857L7.908482 11.142857L8.149554 11.142857C9.388393 11.142857 10.252232 10.399554 10.238839 9.133929C10.500000 8.799107 10.640625 8.370536 10.640625 7.941964C10.640625 7.848214 10.633929 7.747768 10.620536 7.654018C10.787946 7.359375 10.875000 7.024554 10.875000 6.689732C10.875000 6.535714 10.854911 6.375000 10.814732 6.227679C11.029018 5.906250 11.142857 5.524554 11.142857 5.136161Z"/><path id="fa-hand-o-right" d="M1.714286 9C1.714286 9.234375 1.520089 9.428571 1.285714 9.428571C1.051339 9.428571 0.857143 9.234375 0.857143 9C0.857143 8.765625 1.051339 8.571429 1.285714 8.571429C1.520089 8.571429 1.714286 8.765625 1.714286 9ZM11.142857 5.142857C11.142857 5.604911 10.747768 6.000000 10.285714 6.000000L8.069196 6.000000C8.209821 6.160714 8.303571 6.475446 8.303571 6.689732C8.303571 7.004464 8.176339 7.272321 7.948661 7.486607C8.029018 7.627232 8.069196 7.787946 8.069196 7.948661C8.069196 8.256696 7.915179 8.638393 7.633929 8.792411C7.654018 8.912946 7.667411 9.040179 7.667411 9.167411C7.667411 9.970982 7.151786 10.285714 6.401786 10.285714C5.102679 10.285714 3.957589 9.428571 2.785714 9.428571L2.571429 9.428571L2.571429 5.142857L2.785714 5.142857C3.495536 5.142857 3.970982 4.540179 4.399554 4.051339C4.674107 3.743304 4.928571 3.435268 5.149554 3.080357C5.236607 2.939732 5.316964 2.792411 5.397321 2.645089C5.470982 2.491071 5.812500 1.714286 6 1.714286C6.569196 1.714286 7.071429 1.928571 7.071429 2.571429C7.071429 3.428571 6.428571 3.863839 6.428571 4.285714L10.285714 4.285714C10.734375 4.285714 11.142857 4.687500 11.142857 5.142857ZM12 5.136161C12 4.212054 11.209821 3.428571 10.285714 3.428571L7.781250 3.428571C7.881696 3.154018 7.928571 2.866071 7.928571 2.571429C7.928571 1.439732 7.064732 0.857143 6 0.857143C5.102679 0.857143 4.814732 2.002232 4.426339 2.625000C4.225446 2.939732 3.997768 3.214286 3.756696 3.488839C3.562500 3.709821 3.107143 4.285714 2.785714 4.285714L0.857143 4.285714C0.381696 4.285714 0 4.667411 0 5.142857L0 9.428571C0 9.904018 0.381696 10.285714 0.857143 10.285714L2.785714 10.285714C3.207589 10.285714 3.870536 10.533482 4.279018 10.680804C4.975446 10.935268 5.685268 11.142857 6.435268 11.142857C7.674107 11.142857 8.537946 10.399554 8.524554 9.133929C8.785714 8.799107 8.926339 8.370536 8.926339 7.941964C8.926339 7.848214 8.919643 7.747768 8.906250 7.654018C9.046875 7.406250 9.133929 7.138393 9.154018 6.857143L10.285714 6.857143C11.223214 6.857143 12 6.073661 12 5.136161Z"/></defs></svg>